<?xml version="1.0" encoding="utf-8"?>
<!-- Generator: Adobe Illustrator 23.1.1, SVG Export Plug-In . SVG Version: 6.00 Build 0)  -->
<svg version="1.1" id="Calque_1" xmlns="http://www.w3.org/2000/svg" xmlns:xlink="http://www.w3.org/1999/xlink" x="0px" y="0px"
	 viewBox="0 0 352.55 160.2" style="enable-background:new 0 0 352.55 160.2;" xml:space="preserve">
<style type="text/css">
	.st0{fill:#FFFFFF;stroke:#1E1E1C;stroke-width:0.4712;stroke-miterlimit:10;}
	.st1{fill:#1E1E1C;}
	.st2{fill:none;stroke:#1E1E1C;stroke-width:0.7681;}
	.st3{fill:none;stroke:#1E1E1C;stroke-width:0.7679;}
	.st4{fill:none;stroke:#1E1E1C;stroke-width:0.4712;stroke-miterlimit:10;}
	.st5{fill:#FFFFFF;}
	.st6{font-family:'HalisGR-Bold';}
	.st7{font-size:25.0932px;}
	.st8{clip-path:url(#SVGID_2_);}
	.st9{fill:#25303B;}
	.st10{fill:#67B3E4;}
	.st11{fill:#65B4E5;}
</style>
<g>
	<g>
		<g>
			<path class="st0" d="M6.18,0.24l340.13,0c3.31,0,6,2.68,6,6v147.78c0,3.28-2.66,5.95-5.95,5.95H6.18c-3.28,0-5.94-2.66-5.94-5.94
				l0-147.84C0.24,2.9,2.9,0.24,6.18,0.24z"/>
			<polyline class="st1" points="37.2,49.11 35.67,49.11 35.67,42.81 32.63,42.81 32.63,52.85 44.65,52.85 44.65,42.81 41.62,42.81 
				41.62,49.11 40.06,49.11 40.06,42.81 37.2,42.81 37.2,49.11 			"/>
			<path class="st1" d="M35.53,74.79c0-1.13,0.65-1.98,1.63-2.55l-1.68-2.76c-2.13,1.21-3.16,3.03-3.16,5.47
				c0,3.48,2.85,6.34,6.32,6.34c3.49,0,6.34-2.86,6.34-6.34c0-2.44-1.04-4.27-3.16-5.47l-1.69,2.76c0.99,0.57,1.64,1.42,1.64,2.55
				c0,1.83-1.5,2.96-3.12,2.96C37.02,77.75,35.53,76.7,35.53,74.79"/>
			<polyline class="st1" points="35.62,102.01 35.62,98.22 44.65,98.22 44.65,94.47 35.62,94.47 35.62,90.71 32.63,90.71 
				32.63,102.01 35.62,102.01 			"/>
			<polyline class="st1" points="35.62,39.96 35.62,36.17 44.65,36.17 44.65,32.43 35.62,32.43 35.62,28.66 32.63,28.66 
				32.63,39.96 35.62,39.96 			"/>
			<polyline class="st1" points="44.65,87.86 44.65,84.15 32.63,84.15 32.63,87.86 44.65,87.86 			"/>
			<path class="st1" d="M44.65,66.9c-0.68,0-11.36,0-12.03,0c0-0.32,0-3.23,0-3.67c0.77,0,4.04,0,4.53,0v-0.16
				c-0.34-0.28-4.17-3.32-4.53-3.62c0-0.46,0-3.7,0-4.22c0.46,0.42,5.64,4.72,5.99,5.02c0.36-0.3,5.66-4.9,6.04-5.24
				c0,0.46,0,3.88,0,4.32c-0.34,0.28-4.09,3.38-4.49,3.72v0.18c0.52,0,3.93,0,4.49,0C44.65,63.69,44.65,66.56,44.65,66.9"/>
			<path class="st1" d="M71.74,74.15V59.2h10.9l0-16.06H71.74v-16.1l-19.67,1.81v49.5c0,15.71,7.61,25.24,32.38,24.25l0.95-14.83
				C74.49,86.81,71.74,83.07,71.74,74.15"/>
			<polygon class="st1" points="145.46,47.46 130.98,47.46 130.98,45.43 145.46,45.43 145.46,47.46 			"/>
			<polygon class="st1" points="109.85,47.3 109.86,47.63 145.46,47.61 145.46,47.28 109.85,47.3 			"/>
			<path class="st1" d="M115.62,34.77c-0.56-0.91-1.47-1.37-2.76-1.36c-1.22,0-2.11,0.45-2.69,1.34c-0.58,0.91-0.87,2.31-0.87,4.21
				c0,1.85,0.29,3.24,0.89,4.17c0.6,0.94,1.48,1.4,2.67,1.41c1.21,0,2.11-0.45,2.7-1.33c0.6-0.89,0.89-2.29,0.89-4.24
				C116.46,37.08,116.17,35.67,115.62,34.77L115.62,34.77z M113.5,42.15c-0.1,0.46-0.31,0.69-0.61,0.69c-0.34,0-0.56-0.22-0.65-0.66
				c-0.09-0.43-0.14-1.49-0.14-3.18c0-1.73,0.04-2.82,0.13-3.26c0.09-0.44,0.3-0.66,0.65-0.66c0.35,0,0.56,0.2,0.65,0.63
				c0.09,0.43,0.13,1.5,0.13,3.24C113.66,40.62,113.61,41.69,113.5,42.15L113.5,42.15z"/>
			<path class="st1" d="M124.41,37.13c-0.03-0.52-0.07-0.92-0.11-1.22c-0.11-0.8-0.37-1.43-0.78-1.86c-0.42-0.44-0.98-0.66-1.7-0.66
				c-0.44,0-0.83,0.05-1.2,0.14c-0.35,0.09-0.69,0.26-1,0.51l-0.14-0.66l-2.22,0l0.01,13.9l2.68,0v-3.13
				c0.1,0.08,0.28,0.15,0.55,0.19c0.27,0.05,0.6,0.07,1.01,0.07c0.79,0,1.44-0.24,1.92-0.74c0.5-0.5,0.79-1.16,0.87-2
				c0.05-0.51,0.08-1,0.11-1.45c0.02-0.45,0.03-0.96,0.03-1.52C124.45,38.17,124.44,37.65,124.41,37.13L124.41,37.13z M121.62,40.54
				c-0.02,0.71-0.04,1.18-0.05,1.4c-0.01,0.3-0.08,0.54-0.24,0.71c-0.16,0.17-0.35,0.25-0.58,0.25c-0.2,0-0.36-0.01-0.47-0.03
				c-0.12-0.03-0.23-0.08-0.32-0.16V35.3c0.5-0.1,0.74-0.16,0.68-0.14c-0.06,0.02-0.06,0.02,0,0.02c0.27,0,0.48,0.08,0.61,0.25
				c0.13,0.15,0.23,0.4,0.29,0.73c0.04,0.31,0.08,0.67,0.09,1.09c0.02,0.42,0.03,0.91,0.03,1.49
				C121.65,39.23,121.64,39.83,121.62,40.54L121.62,40.54z"/>
			<path class="st1" d="M130.1,34.92l-1.67,0v6.78c0.01,0.5,0.1,0.83,0.31,1.01c0.19,0.17,0.57,0.25,1.14,0.25v1.45l-1.53,0
				c-0.87,0-1.52-0.22-1.96-0.65c-0.44-0.42-0.66-1.08-0.66-1.97l0-6.9h-1.04v-1.5l1.04,0l0-3.18h2.71v3.18l1.66,0L130.1,34.92
				L130.1,34.92z"/>
			<path class="st1" d="M133.54,44.41l-2.68,0V33.39h2.67L133.54,44.41L133.54,44.41z M133.53,32.71h-2.67v-2.46l2.67,0
				L133.53,32.71L133.53,32.71z"/>
			<path class="st1" d="M138.64,44.41l-1.68,0c-0.67,0-1.17-0.18-1.51-0.55c-0.35-0.36-0.52-0.91-0.52-1.65V30.21l2.67,0l0,11.9
				c0,0.3,0.07,0.52,0.21,0.64c0.13,0.13,0.41,0.19,0.82,0.19V44.41L138.64,44.41z"/>
			<path class="st1" d="M145.63,37.88c0-1.5-0.24-2.62-0.74-3.37c-0.49-0.74-1.27-1.12-2.31-1.11c-1.21,0-2.12,0.46-2.73,1.39
				c-0.61,0.94-0.9,2.32-0.9,4.15c0,1.85,0.29,3.24,0.87,4.17c0.59,0.94,1.44,1.4,2.56,1.41c1.02,0,1.78-0.23,2.26-0.69
				c0.49-0.45,0.73-1.16,0.73-2.12l-1.93,0.01c0.01,0.41-0.06,0.7-0.19,0.87c-0.13,0.16-0.32,0.25-0.57,0.25
				c-0.38,0.01-0.63-0.22-0.75-0.66c-0.13-0.43-0.18-1.46-0.18-3.06l3.89,0L145.63,37.88L145.63,37.88z M141.76,37.55
				c0-1.03,0.05-1.69,0.15-2.01c0.1-0.3,0.32-0.46,0.67-0.46c0.36,0,0.59,0.18,0.68,0.52c0.1,0.35,0.15,1,0.15,1.95L141.76,37.55
				L141.76,37.55z"/>
			<g>
				<path class="st2" d="M205.83,84.8c-6.3,0-11.47-5.11-11.47-11.37c0-6.3,5.17-11.5,11.47-11.5c6.26,0,11.4,5.24,11.4,11.5
					C217.23,79.62,212.09,84.8,205.83,84.8L205.83,84.8z"/>
			</g>
			<path class="st1" d="M210.07,66.85c-0.74,0-1.04,0.32-1.36,0.97l-3.2,6.67h-0.03l-3.22-6.67c-0.32-0.65-0.62-0.97-1.36-0.97
				c-0.98,0-1.31,0.62-1.31,1.21V78.4c0,0.56,0.45,0.89,0.98,0.89c0.47,0,1.01-0.32,1.01-0.89v-7.7h0.03l2.93,5.98
				c0.21,0.41,0.47,0.65,0.94,0.65c0.48,0,0.74-0.24,0.95-0.65l2.93-5.98h0.03v7.7c0,0.56,0.53,0.89,1.01,0.89
				c0.53,0,0.98-0.32,0.98-0.89V68.07C211.37,67.47,211.04,66.85,210.07,66.85L210.07,66.85z"/>
			<g>
				<path class="st3" d="M121.81,61.93c-6.3,0-11.47,5.2-11.47,11.52c0,6.26,5.17,11.35,11.47,11.35c6.26,0,11.4-5.13,11.4-11.35
					C133.21,67.16,128.07,61.93,121.81,61.93L121.81,61.93z"/>
			</g>
			<path class="st1" d="M124.97,74.79c0,1.89-1.06,2.81-2.66,2.81c-1.77,0-2.75-0.89-2.75-2.84v-4.88c0-0.41,0.39-0.62,0.83-0.62
				c0.39,0,0.83,0.21,0.83,0.62v4.7c0,0.97,0.36,1.57,1.09,1.57c0.77,0,1.07-0.62,1.07-1.57v-4.7c0-0.41,0.38-0.62,0.8-0.62
				c0.39,0,0.8,0.21,0.8,0.62V74.79L124.97,74.79z"/>
			<path class="st1" d="M127.51,77.6c-0.56,0-1.18-0.15-1.54-0.33c-0.38-0.18-0.62-0.38-0.47-0.89c0.15-0.47,0.38-0.74,0.83-0.53
				c0.27,0.12,0.77,0.3,1.18,0.3c0.53,0,1.07-0.27,1.07-0.83c0-0.44-0.27-0.77-0.68-1.01l-0.68-0.38c-0.95-0.53-1.54-1.18-1.54-2.33
				c0-1.48,1.15-2.4,2.54-2.4c0.5,0,1.01,0.12,1.36,0.3c0.35,0.17,0.57,0.35,0.41,0.86c-0.12,0.44-0.39,0.71-0.8,0.5
				c-0.27-0.12-0.62-0.27-1-0.27c-0.56,0-0.95,0.32-0.95,0.8c0,0.42,0.32,0.74,0.71,0.95l0.65,0.35c0.86,0.47,1.54,1.18,1.54,2.39
				C130.15,76.62,128.96,77.6,127.51,77.6L127.51,77.6z"/>
			<path class="st1" d="M115.84,76.15h-0.71v-2.3h0.71c0.59,0,1.39,0.21,1.39,1.12C117.23,75.76,116.79,76.15,115.84,76.15
				L115.84,76.15z M115.04,70.65h0.62c0.71,0,1.33,0.24,1.33,1.03c0,0.77-0.65,1.04-1.33,1.04h-0.62V70.65L115.04,70.65z
				 M117.34,73.19v-0.03c0.59-0.3,1.3-0.86,1.3-1.86c0-1.36-1.18-2.01-2.33-2.01h-2.22c-0.41,0-0.65,0.32-0.65,0.68v6.91
				c0,0.42,0.41,0.62,0.8,0.62h2.1c1.27,0,2.45-0.68,2.45-2.37C118.8,73.78,117.85,73.28,117.34,73.19L117.34,73.19z"/>
			<g>
				<path class="st3" d="M174.84,73.39c0,6.31-5.12,11.41-11.47,11.41c-6.3,0-11.41-5.1-11.41-11.41c0-6.34,5.1-11.47,11.41-11.47
					C169.71,61.93,174.84,67.06,174.84,73.39L174.84,73.39z"/>
			</g>
			<path class="st1" d="M168.34,68.77c0-0.47-0.29-0.92-0.83-0.92h-9.41c-0.53,0-0.83,0.44-0.83,0.92c0,0.42,0.3,0.92,0.83,0.92
				h3.62v9.73c0,0.54,0.56,0.84,1.06,0.84c0.56,0,1.1-0.3,1.1-0.84v-9.73h3.62C168.05,69.69,168.34,69.19,168.34,68.77L168.34,68.77
				z"/>
			<g>
				<path class="st3" d="M259.29,73.45c0,6.22-5.14,11.35-11.41,11.35c-6.3,0-11.46-5.1-11.46-11.35c0-6.32,5.17-11.52,11.46-11.52
					C254.15,61.93,259.29,67.16,259.29,73.45L259.29,73.45z"/>
			</g>
			<path class="st1" d="M250.15,76.42c0-0.36-0.24-0.74-0.65-0.74h-2.25v-2.04h1.87c0.41,0,0.65-0.36,0.65-0.68
				c0-0.36-0.24-0.68-0.65-0.68h-1.87v-1.87h2.07c0.41,0,0.65-0.41,0.65-0.74c0-0.35-0.24-0.74-0.65-0.74h-3.02
				c-0.41,0-0.65,0.32-0.65,0.68v6.93c0,0.42,0.42,0.62,0.8,0.62h3.04C249.92,77.16,250.15,76.74,250.15,76.42L250.15,76.42z"/>
			<path class="st1" d="M253.02,72.69h-0.47v-2.4h0.56c0.74,0,1.39,0.32,1.39,1.16C254.49,72.45,253.58,72.69,253.02,72.69
				L253.02,72.69z M254.73,73.55c0.77-0.38,1.42-1.06,1.42-2.28c0-1.6-1.18-2.34-2.34-2.34h-2.21c-0.41,0-0.65,0.32-0.65,0.68v6.96
				c0,0.42,0.42,0.62,0.8,0.62c0.44,0,0.8-0.21,0.8-0.62v-2.69h0.68l1.33,2.99c0.12,0.24,0.33,0.33,0.56,0.33
				c0.48,0,1.15-0.45,0.89-0.98L254.73,73.55L254.73,73.55z"/>
			<path class="st1" d="M241.59,72.69h-0.48v-2.4h0.56c0.74,0,1.39,0.32,1.39,1.16C243.06,72.45,242.15,72.69,241.59,72.69
				L241.59,72.69z M243.3,73.55c0.77-0.38,1.42-1.06,1.42-2.28c0-1.6-1.18-2.34-2.33-2.34h-2.22c-0.41,0-0.65,0.32-0.65,0.68v6.96
				c0,0.42,0.41,0.62,0.8,0.62c0.44,0,0.8-0.21,0.8-0.62v-2.69h0.68l1.33,2.99c0.12,0.24,0.33,0.33,0.56,0.33
				c0.47,0,1.15-0.45,0.88-0.98L243.3,73.55L243.3,73.55z"/>
			<path class="st1" d="M200.94,47.91l0-0.07c0.11-1.43,0.32-2.29,0.68-3.43c2.39-1.39,4.03-4.35,4.04-7.34
				c-0.01-4.47-3.65-8-8.07-7.99c-2.32,0-4.42,1.07-5.92,2.61c-1.21-1.11-2.89-1.57-2.89-1.57c2.11-2.57,5.25-4.21,8.84-4.21
				c6.28,0,11.35,4.89,11.35,11.16C208.96,42.19,205.6,46.51,200.94,47.91L200.94,47.91L200.94,47.91z"/>
			<path class="st1" d="M189.83,34.89c-0.24,0.77-0.31,1.34-0.31,2.18c0,4.62,3.67,8.12,8.12,8.13l0,0
				c-0.24,1.02-0.38,1.82-0.48,2.99c-0.86-0.01-1.7-0.07-2.5-0.26c-4.92-1.18-8.59-5.57-8.5-10.86c0.02-1.33,0.17-2.48,0.64-3.68
				C186.8,33.4,188.53,33.52,189.83,34.89L189.83,34.89z"/>
			<path class="st1" d="M197.45,34.53c0,0,0.09,0.83,0.16,1.36c0,0,0.01,0.16,0.24,0.23l0.63,0.2c0,0,0.46,0.14,0.4,0.62l-0.07,0.74
				c0,0,0.24-0.37,0.64-0.35c0,0,0.53,0.06,0.52,0.6c0,0-0.04,0.55,0.14,0.72c0,0,0.12,0.27,0.96,0.35
				c0.37,0.03,0.66,0.23,0.66,0.23c0.61,0.48,0.18,1.25,0.18,1.25s-1.2,2.6-1.72,5.07c0,0-1.1,3.9-0.07,6.76h-1.45
				c-1.56-4.78,1.59-11.38,1.59-11.38s0.35-0.65-0.12-0.74c-0.17-0.03-0.2-0.03-0.41-0.07c0,0-0.78-0.05-0.61-1.02
				c0.13-0.71-0.46-0.36-0.46-0.36c-0.63,0.34-0.67-0.17-0.67-0.17c-0.03-0.25-0.07-0.67-0.07-0.67c-0.03-0.27-0.18-0.29-0.18-0.29
				l-0.7-0.15c-0.54-0.13-0.54-0.61-0.54-0.61l-0.1-1.23c-0.01-0.54-0.55-0.4-0.55-0.4c-0.31,0.1-1.34,0.25-1.34,0.25
				s-0.6,0.15-1.5-0.06c-0.67-0.2-1.55-0.64-2.55-1.5c-0.98-0.86-2.25-1.34-2.25-1.34c-2.61-0.87-5.28,0.27-5.28,0.27v-1.5
				c0,0,2.23-1.21,5.4-0.25c0,0,1.57,0.37,3.29,1.87c0,0,0.56,0.48,1.24,0.83c0,0,0.66,0.4,1.7,0.26c1.25-0.19,2-0.22,2-0.22
				S197.4,33.73,197.45,34.53L197.45,34.53z"/>
			<path class="st1" d="M215,37.26l-1.36,0l0,0l2.01,2.27l1.84,0.01l-1.86-1.99c2.57-0.01,2.44-1.49,2.44-1.49c0-1.2-2-1.15-2-1.15
				h-3.5l-0.82,4.62h1.48l0.77-4.23h1.82c0,0,0.6-0.03,0.6,0.8C216.41,36.1,216.43,37.26,215,37.26L215,37.26z"/>
			<polygon class="st1" points="229.2,35.36 231.7,35.36 231.76,34.9 225.22,34.9 225.17,35.36 227.65,35.36 226.9,39.52 
				228.46,39.53 229.2,35.36 			"/>
			<path class="st1" d="M220.39,38.02l1.41-1.59l0.88,1.58L220.39,38.02L220.39,38.02z M222.55,34.78l-4.22,4.75h0.72l0.96-1.09
				l2.89,0l0.59,1.09l1.62,0L222.55,34.78L222.55,34.78z"/>
			<path class="st1" d="M235.37,37.22l-1.36,0l0.35-1.93l1.45,0c0,0,0.96-0.02,0.96,0.8C236.77,36.1,236.8,37.22,235.37,37.22
				L235.37,37.22z M238.42,36.05c0-1.2-1.99-1.15-1.99-1.15h-3.49l-0.83,4.62l1.48,0l0.34-1.89l2.04,0
				C238.55,37.64,238.42,36.05,238.42,36.05L238.42,36.05z"/>
			<g>
				<g>
					<path class="st1" d="M265.67,64.08c0.17,0.13,0.37,0.35,0.59,0.67v-3.48h0.94v9.5h-0.88v-0.96c-0.23,0.42-0.5,0.73-0.81,0.91
						c-0.31,0.19-0.67,0.28-1.07,0.28c-0.65,0-1.21-0.32-1.69-0.97c-0.48-0.65-0.71-1.51-0.71-2.58c0-1,0.22-1.87,0.65-2.61
						c0.43-0.74,1.05-1.1,1.86-1.1C265,63.75,265.37,63.86,265.67,64.08z M263.48,69.26c0.26,0.5,0.68,0.75,1.26,0.75
						c0.45,0,0.82-0.23,1.11-0.69c0.29-0.46,0.43-1.13,0.43-1.99c0-0.87-0.15-1.52-0.45-1.94c-0.3-0.42-0.67-0.63-1.1-0.63
						c-0.49,0-0.88,0.22-1.19,0.67c-0.3,0.45-0.45,1.11-0.45,1.98C263.09,68.14,263.21,68.76,263.48,69.26z"/>
					<path class="st1" d="M271.81,66.6c0.22-0.03,0.38-0.15,0.45-0.34c0.04-0.1,0.07-0.25,0.07-0.44c0-0.39-0.12-0.68-0.36-0.85
						c-0.24-0.18-0.58-0.27-1.02-0.27c-0.52,0-0.88,0.16-1.09,0.48c-0.12,0.18-0.2,0.44-0.24,0.8h-0.91
						c0.02-0.85,0.25-1.45,0.7-1.78c0.45-0.33,0.97-0.5,1.56-0.5c0.68,0,1.24,0.16,1.68,0.47c0.42,0.32,0.64,0.8,0.64,1.45v3.96
						c0,0.12,0.02,0.22,0.06,0.29c0.04,0.07,0.13,0.11,0.26,0.11c0.04,0,0.09,0,0.15-0.01c0.06-0.01,0.11-0.02,0.17-0.03v0.85
						c-0.15,0.05-0.27,0.08-0.35,0.1c-0.08,0.01-0.19,0.02-0.33,0.02c-0.34,0-0.59-0.14-0.74-0.42c-0.08-0.15-0.14-0.36-0.17-0.63
						c-0.2,0.31-0.49,0.58-0.87,0.8c-0.38,0.23-0.79,0.34-1.24,0.34c-0.54,0-0.99-0.19-1.33-0.58c-0.35-0.39-0.52-0.87-0.52-1.46
						c0-0.64,0.17-1.13,0.51-1.49c0.34-0.35,0.78-0.57,1.34-0.65L271.81,66.6z M269.72,69.72c0.21,0.19,0.46,0.29,0.74,0.29
						c0.35,0,0.68-0.09,1.01-0.28c0.55-0.31,0.82-0.82,0.82-1.53v-0.93c-0.12,0.09-0.27,0.17-0.46,0.24
						c-0.19,0.06-0.38,0.11-0.56,0.13l-0.6,0.09c-0.35,0.05-0.63,0.14-0.81,0.26c-0.31,0.2-0.46,0.52-0.46,0.96
						C269.41,69.27,269.52,69.53,269.72,69.72z"/>
					<path class="st1" d="M274.91,63.87h0.94v0.99c0.28-0.4,0.57-0.69,0.88-0.87c0.31-0.18,0.66-0.27,1.03-0.27
						c0.83,0,1.39,0.34,1.69,1.02c0.16,0.37,0.24,0.91,0.24,1.6v4.43h-0.99v-4.35c0-0.42-0.05-0.76-0.16-1.02
						c-0.18-0.43-0.5-0.64-0.96-0.64c-0.24,0-0.43,0.03-0.58,0.08c-0.27,0.09-0.51,0.28-0.72,0.57c-0.17,0.23-0.27,0.46-0.32,0.71
						c-0.05,0.24-0.07,0.59-0.07,1.04v3.61h-0.99V63.87z"/>
					<path class="st1" d="M281.74,68.61c0.03,0.38,0.11,0.67,0.25,0.88c0.25,0.37,0.69,0.55,1.31,0.55c0.37,0,0.7-0.09,0.98-0.28
						c0.28-0.18,0.42-0.47,0.42-0.86c0-0.29-0.11-0.52-0.34-0.67c-0.14-0.09-0.43-0.2-0.85-0.33l-0.79-0.23
						c-0.51-0.15-0.88-0.31-1.12-0.49c-0.43-0.31-0.64-0.75-0.64-1.3c0-0.65,0.2-1.18,0.6-1.59c0.4-0.4,0.95-0.61,1.63-0.61
						c0.89,0,1.54,0.31,1.93,0.91c0.25,0.39,0.37,0.8,0.36,1.25h-0.93c-0.02-0.26-0.1-0.5-0.24-0.71c-0.23-0.3-0.63-0.45-1.19-0.45
						c-0.38,0-0.66,0.08-0.85,0.25c-0.2,0.17-0.29,0.39-0.29,0.66c0,0.3,0.13,0.54,0.38,0.72c0.15,0.11,0.36,0.2,0.65,0.28
						l0.66,0.19c0.71,0.2,1.19,0.4,1.43,0.59c0.38,0.3,0.57,0.76,0.57,1.4c0,0.61-0.2,1.14-0.6,1.59c-0.4,0.45-1.01,0.67-1.82,0.67
						c-0.88,0-1.5-0.23-1.87-0.7c-0.36-0.47-0.56-1.04-0.59-1.73H281.74z"/>
				</g>
				<g>
					<path class="st4" d="M265.67,64.08c0.17,0.13,0.37,0.35,0.59,0.67v-3.48h0.94v9.5h-0.88v-0.96c-0.23,0.42-0.5,0.73-0.81,0.91
						c-0.31,0.19-0.67,0.28-1.07,0.28c-0.65,0-1.21-0.32-1.69-0.97c-0.48-0.65-0.71-1.51-0.71-2.58c0-1,0.22-1.87,0.65-2.61
						c0.43-0.74,1.05-1.1,1.86-1.1C265,63.75,265.37,63.86,265.67,64.08z M263.48,69.26c0.26,0.5,0.68,0.75,1.26,0.75
						c0.45,0,0.82-0.23,1.11-0.69c0.29-0.46,0.43-1.13,0.43-1.99c0-0.87-0.15-1.52-0.45-1.94c-0.3-0.42-0.67-0.63-1.1-0.63
						c-0.49,0-0.88,0.22-1.19,0.67c-0.3,0.45-0.45,1.11-0.45,1.98C263.09,68.14,263.21,68.76,263.48,69.26z"/>
					<path class="st4" d="M271.81,66.6c0.22-0.03,0.38-0.15,0.45-0.34c0.04-0.1,0.07-0.25,0.07-0.44c0-0.39-0.12-0.68-0.36-0.85
						c-0.24-0.18-0.58-0.27-1.02-0.27c-0.52,0-0.88,0.16-1.09,0.48c-0.12,0.18-0.2,0.44-0.24,0.8h-0.91
						c0.02-0.85,0.25-1.45,0.7-1.78c0.45-0.33,0.97-0.5,1.56-0.5c0.68,0,1.24,0.16,1.68,0.47c0.42,0.32,0.64,0.8,0.64,1.45v3.96
						c0,0.12,0.02,0.22,0.06,0.29c0.04,0.07,0.13,0.11,0.26,0.11c0.04,0,0.09,0,0.15-0.01c0.06-0.01,0.11-0.02,0.17-0.03v0.85
						c-0.15,0.05-0.27,0.08-0.35,0.1c-0.08,0.01-0.19,0.02-0.33,0.02c-0.34,0-0.59-0.14-0.74-0.42c-0.08-0.15-0.14-0.36-0.17-0.63
						c-0.2,0.31-0.49,0.58-0.87,0.8c-0.38,0.23-0.79,0.34-1.24,0.34c-0.54,0-0.99-0.19-1.33-0.58c-0.35-0.39-0.52-0.87-0.52-1.46
						c0-0.64,0.17-1.13,0.51-1.49c0.34-0.35,0.78-0.57,1.34-0.65L271.81,66.6z M269.72,69.72c0.21,0.19,0.46,0.29,0.74,0.29
						c0.35,0,0.68-0.09,1.01-0.28c0.55-0.31,0.82-0.82,0.82-1.53v-0.93c-0.12,0.09-0.27,0.17-0.46,0.24
						c-0.19,0.06-0.38,0.11-0.56,0.13l-0.6,0.09c-0.35,0.05-0.63,0.14-0.81,0.26c-0.31,0.2-0.46,0.52-0.46,0.96
						C269.41,69.27,269.52,69.53,269.72,69.72z"/>
					<path class="st4" d="M274.91,63.87h0.94v0.99c0.28-0.4,0.57-0.69,0.88-0.87c0.31-0.18,0.66-0.27,1.03-0.27
						c0.83,0,1.39,0.34,1.69,1.02c0.16,0.37,0.24,0.91,0.24,1.6v4.43h-0.99v-4.35c0-0.42-0.05-0.76-0.16-1.02
						c-0.18-0.43-0.5-0.64-0.96-0.64c-0.24,0-0.43,0.03-0.58,0.08c-0.27,0.09-0.51,0.28-0.72,0.57c-0.17,0.23-0.27,0.46-0.32,0.71
						c-0.05,0.24-0.07,0.59-0.07,1.04v3.61h-0.99V63.87z"/>
					<path class="st4" d="M281.74,68.61c0.03,0.38,0.11,0.67,0.25,0.88c0.25,0.37,0.69,0.55,1.31,0.55c0.37,0,0.7-0.09,0.98-0.28
						c0.28-0.18,0.42-0.47,0.42-0.86c0-0.29-0.11-0.52-0.34-0.67c-0.14-0.09-0.43-0.2-0.85-0.33l-0.79-0.23
						c-0.51-0.15-0.88-0.31-1.12-0.49c-0.43-0.31-0.64-0.75-0.64-1.3c0-0.65,0.2-1.18,0.6-1.59c0.4-0.4,0.95-0.61,1.63-0.61
						c0.89,0,1.54,0.31,1.93,0.91c0.25,0.39,0.37,0.8,0.36,1.25h-0.93c-0.02-0.26-0.1-0.5-0.24-0.71c-0.23-0.3-0.63-0.45-1.19-0.45
						c-0.38,0-0.66,0.08-0.85,0.25c-0.2,0.17-0.29,0.39-0.29,0.66c0,0.3,0.13,0.54,0.38,0.72c0.15,0.11,0.36,0.2,0.65,0.28
						l0.66,0.19c0.71,0.2,1.19,0.4,1.43,0.59c0.38,0.3,0.57,0.76,0.57,1.4c0,0.61-0.2,1.14-0.6,1.59c-0.4,0.45-1.01,0.67-1.82,0.67
						c-0.88,0-1.5-0.23-1.87-0.7c-0.36-0.47-0.56-1.04-0.59-1.73H281.74z"/>
				</g>
			</g>
			<g>
				<path class="st1" d="M262.67,74.48h3.59c0.71,0,1.28,0.24,1.73,0.71c0.45,0.48,0.67,1.14,0.67,2.01c0,0.74-0.2,1.39-0.6,1.93
					c-0.39,0.55-0.99,0.82-1.79,0.82h-2.49v4.01h-1.1V74.48z M266.89,75.79c-0.24-0.13-0.56-0.2-0.98-0.2h-2.13v3.28h2.13
					c0.48,0,0.87-0.12,1.17-0.37c0.3-0.24,0.45-0.68,0.45-1.3C267.53,76.51,267.32,76.04,266.89,75.79z"/>
				<path class="st1" d="M272.6,79.79c0.23-0.03,0.38-0.15,0.45-0.34c0.05-0.1,0.07-0.25,0.07-0.44c0-0.39-0.12-0.68-0.36-0.85
					c-0.24-0.18-0.58-0.27-1.03-0.27c-0.51,0-0.88,0.16-1.09,0.48c-0.12,0.18-0.2,0.44-0.24,0.8h-0.91c0.02-0.85,0.25-1.45,0.7-1.78
					c0.45-0.33,0.97-0.5,1.56-0.5c0.69,0,1.25,0.16,1.67,0.47c0.43,0.32,0.64,0.8,0.64,1.45v3.96c0,0.12,0.02,0.22,0.06,0.29
					c0.04,0.07,0.13,0.11,0.27,0.11c0.04,0,0.09,0,0.14-0.01c0.06-0.01,0.11-0.02,0.18-0.03V84c-0.15,0.05-0.27,0.08-0.35,0.1
					c-0.08,0.01-0.19,0.02-0.33,0.02c-0.34,0-0.59-0.14-0.74-0.42c-0.08-0.15-0.14-0.36-0.17-0.63c-0.2,0.31-0.49,0.58-0.86,0.8
					c-0.38,0.23-0.79,0.34-1.24,0.34c-0.54,0-0.99-0.19-1.33-0.58c-0.34-0.39-0.52-0.87-0.52-1.46c0-0.64,0.17-1.13,0.51-1.49
					c0.34-0.35,0.78-0.57,1.33-0.65L272.6,79.79z M270.52,82.91c0.21,0.19,0.45,0.29,0.74,0.29c0.35,0,0.68-0.09,1.01-0.28
					c0.55-0.31,0.82-0.82,0.82-1.53v-0.93c-0.12,0.09-0.28,0.17-0.46,0.24c-0.19,0.06-0.38,0.11-0.56,0.13l-0.6,0.09
					c-0.36,0.05-0.63,0.14-0.81,0.26c-0.31,0.2-0.46,0.52-0.46,0.96C270.21,82.46,270.31,82.72,270.52,82.91z"/>
			</g>
			<g>
				<path class="st1" d="M275.73,77.06h0.94v1.19c0.08-0.23,0.27-0.51,0.57-0.84c0.3-0.33,0.65-0.5,1.04-0.5
					c0.02,0,0.05,0,0.09,0.01c0.04,0,0.12,0.01,0.23,0.02v1.22c-0.06-0.01-0.11-0.02-0.17-0.02c-0.05,0-0.1-0.01-0.16-0.01
					c-0.5,0-0.89,0.19-1.16,0.56c-0.27,0.37-0.4,0.81-0.4,1.3v3.97h-0.99V77.06z"/>
				<path class="st1" d="M279.6,74.5h0.99v1.31h-0.99V74.5z M279.6,77.11h0.99v6.86h-0.99V77.11z"/>
			</g>
			<g>
				<path class="st1" d="M282.68,81.8c0.03,0.38,0.11,0.67,0.25,0.88c0.25,0.37,0.69,0.55,1.31,0.55c0.37,0,0.7-0.09,0.98-0.28
					c0.28-0.18,0.42-0.47,0.42-0.86c0-0.29-0.11-0.52-0.34-0.67c-0.14-0.09-0.43-0.2-0.85-0.33l-0.79-0.23
					c-0.51-0.15-0.88-0.31-1.12-0.49c-0.43-0.31-0.64-0.75-0.64-1.3c0-0.65,0.2-1.18,0.6-1.59c0.4-0.4,0.95-0.61,1.63-0.61
					c0.89,0,1.54,0.31,1.93,0.91c0.25,0.39,0.37,0.8,0.36,1.25h-0.93c-0.02-0.26-0.1-0.5-0.24-0.71c-0.23-0.3-0.63-0.45-1.19-0.45
					c-0.38,0-0.66,0.08-0.85,0.25c-0.2,0.17-0.29,0.39-0.29,0.66c0,0.3,0.13,0.54,0.38,0.72c0.15,0.11,0.36,0.2,0.65,0.28l0.66,0.19
					c0.71,0.2,1.19,0.4,1.43,0.59c0.38,0.3,0.57,0.76,0.57,1.4c0,0.61-0.2,1.14-0.6,1.59c-0.4,0.45-1.01,0.67-1.82,0.67
					c-0.88,0-1.5-0.23-1.87-0.7c-0.36-0.47-0.56-1.04-0.59-1.73H282.68z"/>
			</g>
			<g>
				<path class="st1" d="M78.07,72.92h7.7v-7.7h5.1v7.7h7.7v5.1h-7.7v7.7h-5.1v-7.7h-7.7V72.92z"/>
			</g>
			<g>
				<path d="M305.92,37.58c-14.83-9.88-39.08-9.6-43.48-9.32V50.9h39.22L305.92,37.58z"/>
				<g>
					<g>
						<g>
							<path class="st5" d="M294.17,37.58l-1.98,8.62c-0.56,0.05-1.12,0.05-1.68,0c-2.03-0.17-4.92-1.6-4.09-4.15
								c0.62-1.9,2.88-3.05,5.62-3.27c0.48-0.03,0.87-1.28,0.87-1.28c-0.01,0-0.15-0.01-0.38-0.01c-3.93,0.13-6.7,1.19-8.08,3.43
								c-0.04,0.06-0.07,0.11-0.1,0.17l0.73-3.52h-1.89l-1.44,6.94c-1.19-3.15-2.77-6.16-6.9-6.85c-0.91-0.15-1.33-0.2-2.39-0.19
								c-3.01,0.02-5.72,0.87-6.18,2.62c-0.78,2.95,6.11,2.53,5.98,4.49c-0.07,1.19-2.14,1.86-3.8,1.85
								c-1.24-0.01-2.6-0.31-3.37-0.52l-0.61,1.3c1.05,0.22,2.16,0.43,3.34,0.44c4.92,0.05,6.84-1.64,7.06-3.23
								c0.39-2.9-6.51-2.62-6-4.45c0.29-1.14,2.48-1.34,3.74-1.33c0.55,0,1.01,0.05,1.44,0.13c0.23,0.07,0.46-0.17,0.69-0.69
								c0.01-0.03,0.07-0.05,0.07,0.01c0,0-0.52,2.47-0.67,3.21c-0.11,0.52-0.09,0.75,0.52,1.39c0.42,0.43,0.8,0.85,0.88,0.45
								c0.26-1.25,0.52-2.53,0.78-3.78c3.19,3.68,4.76,8.2,4.76,8.2h1.89l0.79-3.81c0.01,0.05,0.02,0.09,0.02,0.14
								c0.39,2.09,3.23,3.67,6.83,3.77c1.22,0.03,2.12-0.03,2.59-0.24c0.47-0.21,0.76-0.44,0.91-1.11c0.12-0.52,0.67-2.95,0.67-2.95
								h4.74c0.29,0,0.54-0.18,1.01-1.55h-5.39l0.66-2.85c0,0,6.23,0,6.23,0c0.2,0,0.48,0.01,0.96-1.4H294.17z"/>
						</g>
					</g>
				</g>
			</g>
			<text transform="matrix(0 -1 1 0 341.6162 105.7721)" class="st1 st6 st7">33999</text>
			<g>
				<defs>
					<rect id="SVGID_1_" x="0.24" y="0.24" width="352.07" height="159.73"/>
				</defs>
				<clipPath id="SVGID_2_">
					<use xlink:href="#SVGID_1_"  style="overflow:visible;"/>
				</clipPath>
				<g class="st8">
					<g>
						<g>
							<path class="st9" d="M153.39,132.73v0.9h0.02c0.46-0.69,1.11-1.04,1.97-1.04c0.38,0,0.72,0.08,1.03,0.24
								c0.31,0.16,0.52,0.43,0.65,0.8c0.2-0.33,0.47-0.59,0.81-0.77c0.33-0.18,0.7-0.27,1.1-0.27c0.31,0,0.58,0.03,0.83,0.1
								c0.25,0.07,0.46,0.17,0.64,0.31c0.18,0.14,0.31,0.32,0.41,0.55c0.1,0.22,0.15,0.49,0.15,0.81v4.48h-1v-4
								c0-0.19-0.02-0.37-0.05-0.53c-0.03-0.17-0.09-0.31-0.18-0.43c-0.09-0.12-0.21-0.22-0.36-0.29c-0.15-0.07-0.35-0.11-0.6-0.11
								c-0.5,0-0.89,0.14-1.17,0.43c-0.28,0.28-0.43,0.66-0.43,1.13v3.8h-1v-4c0-0.2-0.02-0.38-0.05-0.54
								c-0.04-0.17-0.1-0.31-0.18-0.43c-0.09-0.12-0.2-0.22-0.35-0.28c-0.15-0.07-0.33-0.1-0.56-0.1c-0.29,0-0.54,0.06-0.75,0.18
								s-0.38,0.26-0.51,0.43c-0.13,0.17-0.22,0.34-0.28,0.51c-0.06,0.18-0.09,0.32-0.09,0.44v3.8h-1v-6.11H153.39z"/>
							<path class="st9" d="M162.26,134.53c0.13-0.39,0.31-0.73,0.57-1.02c0.25-0.29,0.56-0.51,0.93-0.68
								c0.37-0.17,0.8-0.25,1.28-0.25c0.49,0,0.92,0.08,1.28,0.25c0.37,0.17,0.68,0.39,0.93,0.68c0.25,0.29,0.44,0.63,0.57,1.02
								c0.13,0.39,0.19,0.81,0.19,1.26c0,0.45-0.06,0.87-0.19,1.25c-0.13,0.39-0.32,0.72-0.57,1.01c-0.25,0.29-0.56,0.51-0.93,0.67
								c-0.37,0.16-0.79,0.24-1.28,0.24c-0.48,0-0.91-0.08-1.28-0.24c-0.37-0.16-0.68-0.39-0.93-0.67
								c-0.25-0.29-0.44-0.62-0.57-1.01c-0.13-0.39-0.19-0.8-0.19-1.25C162.07,135.34,162.14,134.92,162.26,134.53z M163.29,136.78
								c0.1,0.29,0.23,0.53,0.41,0.72c0.17,0.19,0.38,0.34,0.61,0.44c0.23,0.1,0.48,0.15,0.74,0.15c0.26,0,0.51-0.05,0.74-0.15
								c0.23-0.1,0.43-0.25,0.61-0.44c0.17-0.19,0.31-0.43,0.41-0.72c0.1-0.29,0.15-0.62,0.15-0.99c0-0.37-0.05-0.7-0.15-0.99
								c-0.1-0.29-0.23-0.53-0.41-0.73c-0.17-0.2-0.38-0.35-0.61-0.45c-0.23-0.1-0.48-0.15-0.74-0.15c-0.26,0-0.51,0.05-0.74,0.15
								c-0.23,0.1-0.44,0.25-0.61,0.45c-0.17,0.2-0.31,0.44-0.41,0.73c-0.1,0.29-0.15,0.62-0.15,0.99
								C163.14,136.16,163.19,136.49,163.29,136.78z"/>
							<path class="st9" d="M170.11,130.41v3.15h0.02c0.17-0.34,0.43-0.58,0.78-0.74c0.35-0.15,0.74-0.23,1.17-0.23
								c0.47,0,0.88,0.09,1.23,0.26c0.35,0.17,0.64,0.41,0.87,0.7c0.23,0.3,0.41,0.64,0.53,1.02s0.18,0.8,0.18,1.23
								c0,0.43-0.06,0.84-0.17,1.23c-0.11,0.39-0.29,0.72-0.52,1.01c-0.23,0.29-0.52,0.51-0.87,0.68c-0.35,0.17-0.76,0.25-1.22,0.25
								c-0.15,0-0.32-0.02-0.5-0.05c-0.18-0.03-0.37-0.08-0.55-0.15c-0.18-0.07-0.35-0.17-0.51-0.29c-0.16-0.12-0.3-0.27-0.41-0.45
								h-0.02v0.81h-1v-8.43H170.11z M173.72,134.9c-0.08-0.27-0.19-0.51-0.34-0.73c-0.15-0.21-0.35-0.38-0.59-0.51
								c-0.24-0.13-0.52-0.19-0.84-0.19c-0.34,0-0.63,0.07-0.86,0.2c-0.24,0.13-0.43,0.31-0.58,0.53c-0.15,0.22-0.26,0.46-0.32,0.74
								c-0.07,0.28-0.1,0.56-0.1,0.84c0,0.3,0.04,0.59,0.11,0.87c0.07,0.28,0.18,0.53,0.34,0.74c0.15,0.21,0.35,0.38,0.6,0.51
								s0.54,0.19,0.89,0.19c0.35,0,0.64-0.07,0.87-0.2c0.23-0.13,0.42-0.31,0.56-0.53c0.14-0.22,0.24-0.47,0.31-0.76
								c0.06-0.28,0.09-0.57,0.09-0.87C173.83,135.45,173.79,135.17,173.72,134.9z"/>
							<path class="st9" d="M176.01,131.63v-1.23h1v1.23H176.01z M177.02,132.73v6.11h-1v-6.11H177.02z"/>
							<path class="st9" d="M179.52,130.41v8.43h-1v-8.43H179.52z"/>
							<path class="st9" d="M181.02,131.63v-1.23h1v1.23H181.02z M182.03,132.73v6.11h-1v-6.11H182.03z"/>
							<path class="st9" d="M186.08,132.73v0.89h-1.22v3.79c0,0.12,0.01,0.21,0.03,0.28c0.02,0.07,0.06,0.13,0.11,0.17
								c0.05,0.04,0.13,0.07,0.23,0.08c0.1,0.01,0.23,0.02,0.38,0.02h0.46v0.89h-0.77c-0.26,0-0.48-0.02-0.67-0.05
								c-0.19-0.04-0.33-0.1-0.45-0.19c-0.11-0.09-0.2-0.23-0.25-0.4c-0.06-0.17-0.08-0.4-0.08-0.69v-3.89h-1.04v-0.89h1.04v-1.83h1
								v1.83H186.08z"/>
							<path class="st9" d="M191.39,138.45c-0.46,0.35-1.03,0.52-1.72,0.52c-0.49,0-0.91-0.08-1.27-0.24
								c-0.36-0.16-0.66-0.38-0.9-0.66c-0.24-0.28-0.43-0.62-0.55-1.02c-0.12-0.39-0.19-0.82-0.21-1.29c0-0.46,0.07-0.89,0.21-1.28
								c0.14-0.39,0.34-0.72,0.6-1c0.26-0.28,0.56-0.5,0.91-0.66c0.35-0.16,0.73-0.24,1.15-0.24c0.54,0,0.99,0.11,1.35,0.34
								c0.36,0.22,0.65,0.51,0.86,0.86c0.22,0.35,0.37,0.72,0.45,1.13c0.08,0.41,0.12,0.8,0.1,1.17h-4.57
								c-0.01,0.27,0.02,0.52,0.09,0.76c0.07,0.24,0.18,0.45,0.34,0.64c0.16,0.18,0.36,0.33,0.6,0.44c0.24,0.11,0.53,0.17,0.86,0.17
								c0.43,0,0.77-0.1,1.05-0.3c0.27-0.2,0.45-0.5,0.54-0.9h0.99C192.14,137.59,191.85,138.1,191.39,138.45z M191.15,134.53
								c-0.09-0.21-0.21-0.4-0.37-0.55c-0.15-0.15-0.33-0.28-0.54-0.37s-0.44-0.14-0.69-0.14c-0.26,0-0.49,0.05-0.7,0.14
								s-0.39,0.21-0.54,0.37c-0.15,0.16-0.27,0.34-0.35,0.55c-0.09,0.21-0.14,0.43-0.15,0.67h3.51
								C191.29,134.97,191.24,134.74,191.15,134.53z M189.9,129.74l-1.13,1.91h0.76l1.67-1.91H189.9z"/>
							<path class="st9" d="M194.06,137.48c0.09,0.15,0.22,0.28,0.37,0.37c0.15,0.09,0.33,0.16,0.52,0.19
								c0.19,0.04,0.39,0.06,0.6,0.06c0.16,0,0.32-0.01,0.5-0.04c0.17-0.02,0.33-0.07,0.48-0.13c0.15-0.06,0.27-0.16,0.36-0.28
								c0.09-0.12,0.14-0.28,0.14-0.47c0-0.26-0.1-0.46-0.3-0.59c-0.2-0.13-0.44-0.24-0.74-0.32c-0.3-0.08-0.62-0.16-0.96-0.22
								c-0.35-0.07-0.67-0.16-0.96-0.28c-0.3-0.12-0.54-0.29-0.74-0.51c-0.2-0.22-0.3-0.53-0.3-0.92c0-0.31,0.07-0.57,0.21-0.79
								c0.14-0.22,0.31-0.4,0.53-0.54c0.22-0.14,0.46-0.24,0.73-0.31c0.27-0.07,0.54-0.1,0.81-0.1c0.35,0,0.67,0.03,0.96,0.09
								c0.29,0.06,0.55,0.16,0.77,0.31c0.22,0.15,0.4,0.34,0.54,0.59c0.13,0.25,0.21,0.56,0.24,0.93h-1
								c-0.02-0.2-0.07-0.36-0.15-0.49c-0.09-0.13-0.2-0.23-0.33-0.31c-0.13-0.08-0.28-0.14-0.44-0.17
								c-0.16-0.04-0.32-0.05-0.49-0.05c-0.15,0-0.3,0.01-0.45,0.04c-0.15,0.02-0.29,0.06-0.42,0.12c-0.13,0.06-0.23,0.14-0.31,0.24
								c-0.08,0.1-0.12,0.23-0.12,0.38c0,0.17,0.06,0.32,0.18,0.43c0.12,0.11,0.28,0.21,0.47,0.28c0.19,0.07,0.4,0.14,0.64,0.19
								c0.24,0.05,0.47,0.1,0.71,0.16c0.25,0.06,0.5,0.12,0.74,0.2c0.24,0.08,0.45,0.18,0.64,0.31c0.18,0.13,0.33,0.29,0.45,0.49
								c0.11,0.2,0.17,0.44,0.17,0.73c0,0.37-0.08,0.68-0.23,0.92c-0.15,0.24-0.35,0.44-0.6,0.59c-0.25,0.15-0.53,0.25-0.84,0.31
								c-0.31,0.06-0.62,0.09-0.93,0.09c-0.34,0-0.66-0.04-0.97-0.11c-0.31-0.07-0.58-0.19-0.81-0.35
								c-0.24-0.16-0.43-0.37-0.57-0.64c-0.14-0.26-0.22-0.58-0.24-0.96h1C193.92,137.14,193.97,137.32,194.06,137.48z"/>
						</g>
						<g>
							<path class="st10" d="M94.29,115.06h-2.67l2.33-3.1h3.17l2.34,3.1h-2.67l-1.25-1.67L94.29,115.06z M93.77,116.23h3.54v10.82
								h-3.54V116.23z"/>
							<rect x="99.03" y="112.16" class="st10" width="3.54" height="14.88"/>
							<path class="st10" d="M107.06,122.5c0.06,1.48,0.92,2.46,2.42,2.46c0.85,0,1.69-0.4,2.02-1.19h3.32
								c-0.65,2.5-2.96,3.59-5.38,3.59c-3.52,0-5.92-2.13-5.92-5.75c0-3.31,2.65-5.69,5.83-5.69c3.88,0,5.81,2.92,5.65,6.59H107.06
								 M111.45,120.52c-0.06-1.21-0.92-2.21-2.1-2.21c-1.25,0-2.08,0.89-2.29,2.21H111.45z"/>
							<path class="st10" d="M123.6,127.04h-1.4v-1.15h-0.03c-0.46,0.93-1.54,1.35-2.71,1.35c-2.61,0-3.91-2.07-3.91-4.47
								c0-2.4,1.28-4.42,3.88-4.42c0.87,0,2.12,0.33,2.74,1.33h0.03v-4.37h1.4V127.04 M119.65,126c1.87,0,2.6-1.61,2.6-3.2
								c0-1.68-0.76-3.22-2.68-3.22c-1.91,0-2.55,1.63-2.55,3.29C117.03,124.46,117.85,126,119.65,126"/>
							<path class="st10" d="M132.17,124.35c-0.38,1.87-1.72,2.89-3.63,2.89c-2.71,0-4-1.87-4.08-4.47c0-2.55,1.68-4.42,4-4.42
								c3,0,3.93,2.81,3.84,4.87h-6.36c-0.05,1.48,0.79,2.79,2.64,2.79c1.15,0,1.95-0.56,2.2-1.66H132.17 M130.83,121.98
								c-0.07-1.33-1.06-2.4-2.45-2.4c-1.46,0-2.33,1.1-2.43,2.4H130.83z"/>
							<polygon class="st10" points="133.21,112.16 144.17,112.16 144.17,115.27 137.09,115.27 137.09,118.31 143.22,118.31 
								143.22,121.31 137.09,121.31 137.09,127.04 133.21,127.04 							"/>
							<path class="st10" d="M144.88,116.23h3.44v1.89h0.04c0.52-1.37,1.73-2.11,3.26-2.11c0.27,0,0.56,0.03,0.83,0.09v3.23
								c-0.46-0.13-0.87-0.21-1.36-0.21c-1.75,0-2.67,1.21-2.67,2.57v5.35h-3.54V116.23z"/>
							<path class="st10" d="M152.45,119.56c0.06-1.41,0.73-2.33,1.68-2.9c0.96-0.54,2.21-0.75,3.44-0.75
								c2.56,0,5.04,0.56,5.04,3.63v4.73c0,0.92,0,1.92,0.42,2.77h-3.57c-0.12-0.34-0.17-0.67-0.21-1.02
								c-0.92,0.96-2.27,1.33-3.56,1.33c-2.06,0-3.69-1.04-3.69-3.27c0-3.52,3.83-3.25,6.29-3.75c0.61-0.12,0.94-0.33,0.94-1
								c0-0.81-0.98-1.12-1.71-1.12c-0.98,0-1.6,0.44-1.77,1.35H152.45 M157.03,125.16c1.68,0,2.25-0.96,2.17-3.19
								c-0.5,0.31-1.42,0.38-2.19,0.58c-0.79,0.19-1.46,0.52-1.46,1.38C155.55,124.81,156.23,125.16,157.03,125.16"/>
							<path class="st10" d="M163.91,116.23h3.44v1.48h0.05c0.64-1.11,2.1-1.79,3.39-1.79c3.61,0,3.9,2.63,3.9,4.19v6.94h-3.54
								v-5.23c0-1.48,0.17-2.98-1.77-2.98c-1.33,0-1.92,1.12-1.92,2.31v5.9h-3.55V116.23z"/>
							<path class="st10" d="M183.04,120.19c-0.02-0.92-0.84-1.56-1.73-1.56c-1.98,0-2.29,1.69-2.29,3.19c0,1.4,0.6,2.83,2.1,2.83
								c1.23,0,1.86-0.71,2.02-1.85h3.44c-0.31,2.89-2.56,4.56-5.44,4.56c-3.25,0-5.67-2.23-5.67-5.54c0-3.44,2.19-5.9,5.67-5.9
								c2.69,0,5.09,1.42,5.34,4.27H183.04z"/>
							<path class="st10" d="M190.34,122.5c0.06,1.48,0.92,2.46,2.42,2.46c0.85,0,1.69-0.4,2.02-1.19h3.32
								c-0.65,2.5-2.96,3.59-5.38,3.59c-3.52,0-5.92-2.13-5.92-5.75c0-3.31,2.65-5.69,5.83-5.69c3.88,0,5.82,2.92,5.65,6.59H190.34
								 M194.73,120.52c-0.06-1.21-0.92-2.21-2.11-2.21c-1.25,0-2.08,0.89-2.29,2.21H194.73z"/>
						</g>
						<g>
							<g>
								<g>
									<path class="st11" d="M229.07,132.81c0,3.34-2.74,6.08-6.08,6.08h-14.57c-3.34,0-6.08-2.74-6.08-6.08v-14.57
										c0-3.34,2.74-6.08,6.08-6.08h14.57c3.34,0,6.08,2.74,6.08,6.08V132.81z"/>
								</g>
							</g>
							<g>
								<g>
									<path class="st5" d="M217.34,119c-0.63,1.37-2.02,2.07-3.1,1.57c-1.08-0.5-1.44-2.01-0.8-3.38
										c0.63-1.37,2.02-2.07,3.1-1.57C217.62,116.12,217.98,117.63,217.34,119"/>
									<path class="st5" d="M219.11,128.11c-2.3-3.19-5.11-1.56-7,1c-1.49,2.02-2.76,3.78-4.32,5.92
										c-0.36,0.5-0.08,0.67,0.42,0.37c0.51-0.3,1-0.75,1.47-1.4c0.65-0.88,2.26-3.08,3.27-4.48c0.91-1.25,2.26-1.12,3.2,0.17
										c1.08,1.49,2.42,3.37,3.6,4.99c0.82,1.12,3.3,0.95,4.38,0.87c0.19-0.01,0.25-0.16,0.16-0.28
										C223.61,134.33,221.24,131.07,219.11,128.11z"/>
								</g>
							</g>
							<path class="st5" d="M222.18,120.31c-3.23,1.63-4.23,1.47-6.95,1.88s-4.76,1.03-7.02,3.44c-0.57,0.6-0.82,1.14,0.07,0.69
								c3.23-1.63,4.23-1.47,6.95-1.88s4.76-1.03,7.02-3.44C222.82,120.39,223.07,119.86,222.18,120.31z"/>
						</g>
					</g>
					<g>
						<g>
							<path class="st9" d="M341.87,132.73v0.9h0.02c0.46-0.69,1.11-1.04,1.97-1.04c0.38,0,0.72,0.08,1.03,0.24
								c0.31,0.16,0.52,0.43,0.65,0.8c0.2-0.33,0.47-0.59,0.81-0.77s0.7-0.27,1.1-0.27c0.31,0,0.58,0.03,0.83,0.1
								c0.25,0.07,0.46,0.17,0.64,0.31c0.18,0.14,0.31,0.32,0.41,0.55s0.15,0.49,0.15,0.81v4.48h-1v-4c0-0.19-0.02-0.37-0.05-0.53
								c-0.03-0.17-0.09-0.31-0.18-0.43c-0.09-0.12-0.21-0.22-0.36-0.29c-0.15-0.07-0.35-0.11-0.6-0.11c-0.5,0-0.89,0.14-1.17,0.43
								c-0.28,0.28-0.43,0.66-0.43,1.13v3.8h-1v-4c0-0.2-0.02-0.38-0.05-0.54c-0.04-0.17-0.1-0.31-0.18-0.43
								c-0.09-0.12-0.2-0.22-0.35-0.28c-0.15-0.07-0.33-0.1-0.56-0.1c-0.29,0-0.54,0.06-0.75,0.18c-0.21,0.12-0.38,0.26-0.51,0.43
								c-0.13,0.17-0.22,0.34-0.28,0.51c-0.06,0.18-0.09,0.32-0.09,0.44v3.8h-1v-6.11H341.87z"/>
							<path class="st9" d="M350.74,134.53c0.13-0.39,0.31-0.73,0.57-1.02c0.25-0.29,0.56-0.51,0.93-0.68
								c0.37-0.17,0.8-0.25,1.28-0.25c0.49,0,0.92,0.08,1.28,0.25c0.37,0.17,0.68,0.39,0.93,0.68c0.25,0.29,0.44,0.63,0.57,1.02
								c0.13,0.39,0.19,0.81,0.19,1.26c0,0.45-0.06,0.87-0.19,1.25c-0.13,0.39-0.32,0.72-0.57,1.01c-0.25,0.29-0.56,0.51-0.93,0.67
								c-0.37,0.16-0.79,0.24-1.28,0.24c-0.48,0-0.91-0.08-1.28-0.24s-0.68-0.39-0.93-0.67c-0.25-0.29-0.44-0.62-0.57-1.01
								c-0.13-0.39-0.19-0.8-0.19-1.25C350.55,135.34,350.61,134.92,350.74,134.53z M351.76,136.78c0.1,0.29,0.23,0.53,0.41,0.72
								c0.17,0.19,0.38,0.34,0.61,0.44c0.23,0.1,0.48,0.15,0.74,0.15c0.26,0,0.51-0.05,0.74-0.15c0.23-0.1,0.43-0.25,0.61-0.44
								c0.17-0.19,0.31-0.43,0.41-0.72c0.1-0.29,0.15-0.62,0.15-0.99c0-0.37-0.05-0.7-0.15-0.99s-0.23-0.53-0.41-0.73
								c-0.17-0.2-0.38-0.35-0.61-0.45c-0.23-0.1-0.48-0.15-0.74-0.15c-0.26,0-0.51,0.05-0.74,0.15c-0.23,0.1-0.44,0.25-0.61,0.45
								c-0.17,0.2-0.31,0.44-0.41,0.73c-0.1,0.29-0.15,0.62-0.15,0.99C351.61,136.16,351.66,136.49,351.76,136.78z"/>
							<path class="st9" d="M358.58,130.41v3.15h0.02c0.17-0.34,0.43-0.58,0.78-0.74c0.35-0.15,0.74-0.23,1.17-0.23
								c0.47,0,0.88,0.09,1.23,0.26c0.35,0.17,0.64,0.41,0.87,0.7c0.23,0.3,0.41,0.64,0.53,1.02s0.18,0.8,0.18,1.23
								c0,0.43-0.06,0.84-0.17,1.23c-0.11,0.39-0.29,0.72-0.52,1.01c-0.23,0.29-0.52,0.51-0.87,0.68c-0.35,0.17-0.76,0.25-1.22,0.25
								c-0.15,0-0.32-0.02-0.5-0.05c-0.18-0.03-0.37-0.08-0.55-0.15c-0.18-0.07-0.35-0.17-0.51-0.29c-0.16-0.12-0.3-0.27-0.41-0.45
								h-0.02v0.81h-1v-8.43H358.58z M362.19,134.9c-0.08-0.27-0.19-0.51-0.34-0.73c-0.15-0.21-0.35-0.38-0.59-0.51
								c-0.24-0.13-0.52-0.19-0.84-0.19c-0.34,0-0.63,0.07-0.86,0.2c-0.24,0.13-0.43,0.31-0.58,0.53c-0.15,0.22-0.26,0.46-0.32,0.74
								c-0.07,0.28-0.1,0.56-0.1,0.84c0,0.3,0.04,0.59,0.11,0.87c0.07,0.28,0.18,0.53,0.34,0.74c0.15,0.21,0.35,0.38,0.6,0.51
								s0.54,0.19,0.89,0.19c0.35,0,0.64-0.07,0.87-0.2c0.23-0.13,0.42-0.31,0.56-0.53c0.14-0.22,0.24-0.47,0.31-0.76
								c0.06-0.28,0.09-0.57,0.09-0.87C362.3,135.45,362.27,135.17,362.19,134.9z"/>
							<path class="st9" d="M364.49,131.63v-1.23h1v1.23H364.49z M365.49,132.73v6.11h-1v-6.11H365.49z"/>
							<path class="st9" d="M368,130.41v8.43h-1v-8.43H368z"/>
							<path class="st9" d="M369.5,131.63v-1.23h1v1.23H369.5z M370.5,132.73v6.11h-1v-6.11H370.5z"/>
							<path class="st9" d="M374.55,132.73v0.89h-1.22v3.79c0,0.12,0.01,0.21,0.03,0.28c0.02,0.07,0.06,0.13,0.11,0.17
								c0.05,0.04,0.13,0.07,0.23,0.08c0.1,0.01,0.23,0.02,0.38,0.02h0.46v0.89h-0.77c-0.26,0-0.48-0.02-0.67-0.05
								c-0.19-0.04-0.33-0.1-0.45-0.19c-0.11-0.09-0.2-0.23-0.25-0.4c-0.06-0.17-0.08-0.4-0.08-0.69v-3.89h-1.04v-0.89h1.04v-1.83h1
								v1.83H374.55z"/>
							<path class="st9" d="M379.87,138.45c-0.46,0.35-1.03,0.52-1.72,0.52c-0.49,0-0.91-0.08-1.27-0.24
								c-0.36-0.16-0.66-0.38-0.9-0.66c-0.24-0.28-0.43-0.62-0.55-1.02c-0.12-0.39-0.19-0.82-0.21-1.29c0-0.46,0.07-0.89,0.21-1.28
								c0.14-0.39,0.34-0.72,0.6-1c0.26-0.28,0.56-0.5,0.91-0.66c0.35-0.16,0.73-0.24,1.15-0.24c0.54,0,0.99,0.11,1.35,0.34
								c0.36,0.22,0.65,0.51,0.86,0.86c0.22,0.35,0.37,0.72,0.45,1.13c0.08,0.41,0.12,0.8,0.1,1.17h-4.57
								c-0.01,0.27,0.02,0.52,0.09,0.76c0.07,0.24,0.18,0.45,0.34,0.64c0.16,0.18,0.36,0.33,0.6,0.44c0.24,0.11,0.53,0.17,0.86,0.17
								c0.43,0,0.77-0.1,1.05-0.3c0.27-0.2,0.45-0.5,0.54-0.9h0.99C380.62,137.59,380.32,138.1,379.87,138.45z M379.63,134.53
								c-0.09-0.21-0.21-0.4-0.37-0.55c-0.15-0.15-0.33-0.28-0.54-0.37c-0.21-0.09-0.44-0.14-0.69-0.14c-0.26,0-0.49,0.05-0.7,0.14
								c-0.21,0.09-0.39,0.21-0.54,0.37c-0.15,0.16-0.27,0.34-0.35,0.55c-0.09,0.21-0.14,0.43-0.15,0.67h3.51
								C379.77,134.97,379.72,134.74,379.63,134.53z M378.38,129.74l-1.13,1.91H378l1.67-1.91H378.38z"/>
							<path class="st9" d="M382.54,137.48c0.09,0.15,0.22,0.28,0.37,0.37c0.15,0.09,0.33,0.16,0.52,0.19
								c0.19,0.04,0.39,0.06,0.6,0.06c0.16,0,0.32-0.01,0.5-0.04s0.33-0.07,0.48-0.13c0.15-0.06,0.27-0.16,0.36-0.28
								c0.09-0.12,0.14-0.28,0.14-0.47c0-0.26-0.1-0.46-0.3-0.59c-0.2-0.13-0.44-0.24-0.74-0.32c-0.3-0.08-0.62-0.16-0.96-0.22
								c-0.35-0.07-0.67-0.16-0.96-0.28c-0.3-0.12-0.54-0.29-0.74-0.51c-0.2-0.22-0.3-0.53-0.3-0.92c0-0.31,0.07-0.57,0.21-0.79
								c0.14-0.22,0.31-0.4,0.53-0.54c0.22-0.14,0.46-0.24,0.73-0.31c0.27-0.07,0.54-0.1,0.81-0.1c0.35,0,0.67,0.03,0.96,0.09
								c0.29,0.06,0.55,0.16,0.77,0.31c0.22,0.15,0.4,0.34,0.54,0.59c0.13,0.25,0.21,0.56,0.24,0.93h-1
								c-0.02-0.2-0.07-0.36-0.15-0.49c-0.09-0.13-0.2-0.23-0.33-0.31c-0.13-0.08-0.28-0.14-0.44-0.17
								c-0.16-0.04-0.32-0.05-0.49-0.05c-0.15,0-0.3,0.01-0.45,0.04c-0.15,0.02-0.29,0.06-0.42,0.12c-0.13,0.06-0.23,0.14-0.31,0.24
								c-0.08,0.1-0.12,0.23-0.12,0.38c0,0.17,0.06,0.32,0.18,0.43c0.12,0.11,0.28,0.21,0.47,0.28c0.19,0.07,0.4,0.14,0.64,0.19
								c0.24,0.05,0.47,0.1,0.71,0.16c0.25,0.06,0.5,0.12,0.74,0.2c0.24,0.08,0.45,0.18,0.64,0.31c0.18,0.13,0.33,0.29,0.45,0.49
								c0.11,0.2,0.17,0.44,0.17,0.73c0,0.37-0.08,0.68-0.23,0.92c-0.15,0.24-0.35,0.44-0.6,0.59c-0.25,0.15-0.53,0.25-0.84,0.31
								c-0.31,0.06-0.62,0.09-0.93,0.09c-0.34,0-0.66-0.04-0.97-0.11c-0.31-0.07-0.58-0.19-0.81-0.35
								c-0.24-0.16-0.43-0.37-0.57-0.64c-0.14-0.26-0.22-0.58-0.24-0.96h1C382.39,137.14,382.44,137.32,382.54,137.48z"/>
						</g>
						<g>
							<path class="st10" d="M282.76,115.06h-2.67l2.33-3.1h3.17l2.34,3.1h-2.67l-1.25-1.67L282.76,115.06z M282.24,116.23h3.54
								v10.82h-3.54V116.23z"/>
							<rect x="287.51" y="112.16" class="st10" width="3.54" height="14.88"/>
							<path class="st10" d="M295.53,122.5c0.06,1.48,0.92,2.46,2.42,2.46c0.85,0,1.69-0.4,2.02-1.19h3.32
								c-0.65,2.5-2.96,3.59-5.38,3.59c-3.52,0-5.92-2.13-5.92-5.75c0-3.31,2.65-5.69,5.83-5.69c3.88,0,5.81,2.92,5.65,6.59H295.53
								 M299.93,120.52c-0.06-1.21-0.92-2.21-2.1-2.21c-1.25,0-2.08,0.89-2.29,2.21H299.93z"/>
							<path class="st10" d="M312.07,127.04h-1.4v-1.15h-0.03c-0.46,0.93-1.54,1.35-2.71,1.35c-2.61,0-3.91-2.07-3.91-4.47
								c0-2.4,1.28-4.42,3.88-4.42c0.87,0,2.12,0.33,2.74,1.33h0.03v-4.37h1.4V127.04 M308.13,126c1.87,0,2.6-1.61,2.6-3.2
								c0-1.68-0.76-3.22-2.68-3.22c-1.91,0-2.55,1.63-2.55,3.29C305.5,124.46,306.33,126,308.13,126"/>
							<path class="st10" d="M320.65,124.35c-0.38,1.87-1.72,2.89-3.63,2.89c-2.71,0-4-1.87-4.08-4.47c0-2.55,1.68-4.42,4-4.42
								c3,0,3.93,2.81,3.84,4.87h-6.36c-0.05,1.48,0.79,2.79,2.64,2.79c1.15,0,1.95-0.56,2.2-1.66H320.65 M319.3,121.98
								c-0.07-1.33-1.06-2.4-2.45-2.4c-1.46,0-2.33,1.1-2.43,2.4H319.3z"/>
							<polygon class="st10" points="321.69,112.16 332.65,112.16 332.65,115.27 325.56,115.27 325.56,118.31 331.69,118.31 
								331.69,121.31 325.56,121.31 325.56,127.04 321.69,127.04 							"/>
							<path class="st10" d="M333.36,116.23h3.44v1.89h0.04c0.52-1.37,1.73-2.11,3.26-2.11c0.27,0,0.56,0.03,0.83,0.09v3.23
								c-0.46-0.13-0.87-0.21-1.36-0.21c-1.75,0-2.67,1.21-2.67,2.57v5.35h-3.54V116.23z"/>
							<path class="st10" d="M340.92,119.56c0.06-1.41,0.73-2.33,1.68-2.9c0.96-0.54,2.21-0.75,3.44-0.75
								c2.56,0,5.04,0.56,5.04,3.63v4.73c0,0.92,0,1.92,0.42,2.77h-3.57c-0.12-0.34-0.17-0.67-0.21-1.02
								c-0.92,0.96-2.27,1.33-3.56,1.33c-2.06,0-3.69-1.04-3.69-3.27c0-3.52,3.83-3.25,6.29-3.75c0.61-0.12,0.94-0.33,0.94-1
								c0-0.81-0.98-1.12-1.71-1.12c-0.98,0-1.6,0.44-1.77,1.35H340.92 M345.51,125.16c1.68,0,2.25-0.96,2.17-3.19
								c-0.5,0.31-1.42,0.38-2.19,0.58c-0.79,0.19-1.46,0.52-1.46,1.38C344.03,124.81,344.71,125.16,345.51,125.16"/>
							<path class="st10" d="M352.38,116.23h3.44v1.48h0.05c0.64-1.11,2.1-1.79,3.39-1.79c3.61,0,3.9,2.63,3.9,4.19v6.94h-3.54
								v-5.23c0-1.48,0.17-2.98-1.77-2.98c-1.33,0-1.92,1.12-1.92,2.31v5.9h-3.55V116.23z"/>
							<path class="st10" d="M371.52,120.19c-0.02-0.92-0.84-1.56-1.73-1.56c-1.98,0-2.29,1.69-2.29,3.19c0,1.4,0.6,2.83,2.1,2.83
								c1.23,0,1.86-0.71,2.02-1.85h3.44c-0.31,2.89-2.56,4.56-5.44,4.56c-3.25,0-5.67-2.23-5.67-5.54c0-3.44,2.19-5.9,5.67-5.9
								c2.69,0,5.09,1.42,5.34,4.27H371.52z"/>
							<path class="st10" d="M378.81,122.5c0.06,1.48,0.92,2.46,2.42,2.46c0.85,0,1.69-0.4,2.02-1.19h3.32
								c-0.65,2.5-2.96,3.59-5.38,3.59c-3.52,0-5.92-2.13-5.92-5.75c0-3.31,2.65-5.69,5.83-5.69c3.88,0,5.82,2.92,5.65,6.59H378.81
								 M383.21,120.52c-0.06-1.21-0.92-2.21-2.11-2.21c-1.25,0-2.08,0.89-2.29,2.21H383.21z"/>
						</g>
						<g>
							<g>
								<g>
									<path class="st11" d="M417.55,132.81c0,3.34-2.74,6.08-6.08,6.08H396.9c-3.34,0-6.08-2.74-6.08-6.08v-14.57
										c0-3.34,2.74-6.08,6.08-6.08h14.57c3.34,0,6.08,2.74,6.08,6.08V132.81z"/>
								</g>
							</g>
							<g>
								<g>
									<path class="st5" d="M405.82,119c-0.63,1.37-2.02,2.07-3.1,1.57c-1.08-0.5-1.44-2.01-0.8-3.38
										c0.63-1.37,2.02-2.07,3.1-1.57C406.09,116.12,406.45,117.63,405.82,119"/>
									<path class="st5" d="M407.58,128.11c-2.3-3.19-5.11-1.56-7,1c-1.49,2.02-2.76,3.78-4.32,5.92
										c-0.36,0.5-0.08,0.67,0.42,0.37c0.51-0.3,1-0.75,1.47-1.4c0.65-0.88,2.26-3.08,3.27-4.48c0.91-1.25,2.26-1.12,3.2,0.17
										c1.08,1.49,2.42,3.37,3.6,4.99c0.82,1.12,3.3,0.95,4.38,0.87c0.19-0.01,0.25-0.16,0.16-0.28
										C412.09,134.33,409.72,131.07,407.58,128.11z"/>
								</g>
							</g>
							<path class="st5" d="M410.66,120.31c-3.23,1.63-4.23,1.47-6.95,1.88c-2.72,0.41-4.76,1.03-7.02,3.44
								c-0.57,0.6-0.82,1.14,0.07,0.69c3.23-1.63,4.23-1.47,6.95-1.88c2.72-0.41,4.76-1.03,7.02-3.44
								C411.29,120.39,411.54,119.86,410.66,120.31z"/>
						</g>
					</g>
					<g>
						<g>
							<path class="st9" d="M-35.61,132.73v0.9h0.02c0.46-0.69,1.11-1.04,1.97-1.04c0.38,0,0.72,0.08,1.03,0.24
								c0.31,0.16,0.52,0.43,0.65,0.8c0.2-0.33,0.47-0.59,0.81-0.77c0.33-0.18,0.7-0.27,1.1-0.27c0.31,0,0.58,0.03,0.83,0.1
								c0.25,0.07,0.46,0.17,0.64,0.31c0.18,0.14,0.31,0.32,0.41,0.55s0.15,0.49,0.15,0.81v4.48h-1v-4c0-0.19-0.02-0.37-0.05-0.53
								c-0.03-0.17-0.09-0.31-0.18-0.43c-0.09-0.12-0.21-0.22-0.36-0.29c-0.15-0.07-0.35-0.11-0.6-0.11c-0.5,0-0.89,0.14-1.17,0.43
								c-0.28,0.28-0.43,0.66-0.43,1.13v3.8h-1v-4c0-0.2-0.02-0.38-0.05-0.54c-0.04-0.17-0.1-0.31-0.18-0.43
								c-0.09-0.12-0.2-0.22-0.35-0.28c-0.15-0.07-0.33-0.1-0.56-0.1c-0.29,0-0.54,0.06-0.75,0.18s-0.38,0.26-0.51,0.43
								c-0.13,0.17-0.22,0.34-0.28,0.51c-0.06,0.18-0.09,0.32-0.09,0.44v3.8h-1v-6.11H-35.61z"/>
							<path class="st9" d="M-26.74,134.53c0.13-0.39,0.31-0.73,0.57-1.02c0.25-0.29,0.56-0.51,0.93-0.68
								c0.37-0.17,0.8-0.25,1.28-0.25c0.49,0,0.92,0.08,1.28,0.25c0.37,0.17,0.68,0.39,0.93,0.68c0.25,0.29,0.44,0.63,0.57,1.02
								c0.13,0.39,0.19,0.81,0.19,1.26c0,0.45-0.06,0.87-0.19,1.25c-0.13,0.39-0.32,0.72-0.57,1.01c-0.25,0.29-0.56,0.51-0.93,0.67
								c-0.37,0.16-0.79,0.24-1.28,0.24c-0.48,0-0.91-0.08-1.28-0.24s-0.68-0.39-0.93-0.67c-0.25-0.29-0.44-0.62-0.57-1.01
								c-0.13-0.39-0.19-0.8-0.19-1.25C-26.92,135.34-26.86,134.92-26.74,134.53z M-25.71,136.78c0.1,0.29,0.23,0.53,0.41,0.72
								c0.17,0.19,0.38,0.34,0.61,0.44c0.23,0.1,0.48,0.15,0.74,0.15c0.26,0,0.51-0.05,0.74-0.15c0.23-0.1,0.43-0.25,0.61-0.44
								c0.17-0.19,0.31-0.43,0.41-0.72c0.1-0.29,0.15-0.62,0.15-0.99c0-0.37-0.05-0.7-0.15-0.99s-0.23-0.53-0.41-0.73
								c-0.17-0.2-0.38-0.35-0.61-0.45c-0.23-0.1-0.48-0.15-0.74-0.15c-0.26,0-0.51,0.05-0.74,0.15c-0.23,0.1-0.44,0.25-0.61,0.45
								c-0.17,0.2-0.31,0.44-0.41,0.73c-0.1,0.29-0.15,0.62-0.15,0.99C-25.86,136.16-25.81,136.49-25.71,136.78z"/>
							<path class="st9" d="M-18.89,130.41v3.15h0.02c0.17-0.34,0.43-0.58,0.78-0.74c0.35-0.15,0.74-0.23,1.17-0.23
								c0.47,0,0.88,0.09,1.23,0.26c0.35,0.17,0.64,0.41,0.87,0.7c0.23,0.3,0.41,0.64,0.53,1.02c0.12,0.39,0.18,0.8,0.18,1.23
								c0,0.43-0.06,0.84-0.17,1.23c-0.11,0.39-0.29,0.72-0.52,1.01c-0.23,0.29-0.52,0.51-0.87,0.68c-0.35,0.17-0.76,0.25-1.22,0.25
								c-0.15,0-0.32-0.02-0.5-0.05c-0.18-0.03-0.37-0.08-0.55-0.15c-0.18-0.07-0.35-0.17-0.51-0.29c-0.16-0.12-0.3-0.27-0.41-0.45
								h-0.02v0.81h-1v-8.43H-18.89z M-15.28,134.9c-0.08-0.27-0.19-0.51-0.34-0.73c-0.15-0.21-0.35-0.38-0.59-0.51
								c-0.24-0.13-0.52-0.19-0.84-0.19c-0.34,0-0.63,0.07-0.86,0.2c-0.24,0.13-0.43,0.31-0.58,0.53c-0.15,0.22-0.26,0.46-0.32,0.74
								c-0.07,0.28-0.1,0.56-0.1,0.84c0,0.3,0.04,0.59,0.11,0.87c0.07,0.28,0.18,0.53,0.34,0.74c0.15,0.21,0.35,0.38,0.6,0.51
								s0.54,0.19,0.89,0.19c0.35,0,0.64-0.07,0.87-0.2c0.23-0.13,0.42-0.31,0.56-0.53c0.14-0.22,0.24-0.47,0.31-0.76
								c0.06-0.28,0.09-0.57,0.09-0.87C-15.17,135.45-15.21,135.17-15.28,134.9z"/>
							<path class="st9" d="M-12.99,131.63v-1.23h1v1.23H-12.99z M-11.98,132.73v6.11h-1v-6.11H-11.98z"/>
							<path class="st9" d="M-9.48,130.41v8.43h-1v-8.43H-9.48z"/>
							<path class="st9" d="M-7.98,131.63v-1.23h1v1.23H-7.98z M-6.97,132.73v6.11h-1v-6.11H-6.97z"/>
							<path class="st9" d="M-2.92,132.73v0.89h-1.22v3.79c0,0.12,0.01,0.21,0.03,0.28c0.02,0.07,0.06,0.13,0.11,0.17
								c0.05,0.04,0.13,0.07,0.23,0.08c0.1,0.01,0.23,0.02,0.38,0.02h0.46v0.89h-0.77c-0.26,0-0.48-0.02-0.67-0.05
								c-0.19-0.04-0.33-0.1-0.45-0.19c-0.11-0.09-0.2-0.23-0.25-0.4c-0.06-0.17-0.08-0.4-0.08-0.69v-3.89h-1.04v-0.89h1.04v-1.83h1
								v1.83H-2.92z"/>
							<path class="st9" d="M2.39,138.45c-0.46,0.35-1.03,0.52-1.72,0.52c-0.49,0-0.91-0.08-1.27-0.24
								c-0.36-0.16-0.66-0.38-0.9-0.66c-0.24-0.28-0.43-0.62-0.55-1.02c-0.12-0.39-0.19-0.82-0.21-1.29c0-0.46,0.07-0.89,0.21-1.28
								c0.14-0.39,0.34-0.72,0.6-1s0.56-0.5,0.91-0.66c0.35-0.16,0.73-0.24,1.15-0.24c0.54,0,0.99,0.11,1.35,0.34
								c0.36,0.22,0.65,0.51,0.86,0.86c0.22,0.35,0.37,0.72,0.45,1.13c0.08,0.41,0.12,0.8,0.1,1.17H-1.2
								c-0.01,0.27,0.02,0.52,0.09,0.76c0.07,0.24,0.18,0.45,0.34,0.64c0.16,0.18,0.36,0.33,0.6,0.44c0.24,0.11,0.53,0.17,0.86,0.17
								c0.43,0,0.77-0.1,1.05-0.3c0.27-0.2,0.45-0.5,0.54-0.9h0.99C3.15,137.59,2.85,138.1,2.39,138.45z M2.15,134.53
								c-0.09-0.21-0.21-0.4-0.37-0.55c-0.15-0.15-0.33-0.28-0.54-0.37s-0.44-0.14-0.69-0.14c-0.26,0-0.49,0.05-0.7,0.14
								s-0.39,0.21-0.54,0.37c-0.15,0.16-0.27,0.34-0.35,0.55c-0.09,0.21-0.14,0.43-0.15,0.67h3.51
								C2.3,134.97,2.24,134.74,2.15,134.53z M0.91,129.74l-1.13,1.91h0.76l1.67-1.91H0.91z"/>
							<path class="st9" d="M5.06,137.48c0.09,0.15,0.22,0.28,0.37,0.37c0.15,0.09,0.33,0.16,0.52,0.19
								c0.19,0.04,0.39,0.06,0.6,0.06c0.16,0,0.32-0.01,0.5-0.04s0.33-0.07,0.48-0.13c0.15-0.06,0.27-0.16,0.36-0.28
								c0.09-0.12,0.14-0.28,0.14-0.47c0-0.26-0.1-0.46-0.3-0.59c-0.2-0.13-0.44-0.24-0.74-0.32c-0.3-0.08-0.62-0.16-0.96-0.22
								c-0.35-0.07-0.67-0.16-0.96-0.28c-0.3-0.12-0.54-0.29-0.74-0.51c-0.2-0.22-0.3-0.53-0.3-0.92c0-0.31,0.07-0.57,0.21-0.79
								c0.14-0.22,0.31-0.4,0.53-0.54c0.22-0.14,0.46-0.24,0.73-0.31c0.27-0.07,0.54-0.1,0.81-0.1c0.35,0,0.67,0.03,0.96,0.09
								c0.29,0.06,0.55,0.16,0.77,0.31c0.22,0.15,0.4,0.34,0.54,0.59c0.13,0.25,0.21,0.56,0.24,0.93h-1
								c-0.02-0.2-0.07-0.36-0.15-0.49c-0.09-0.13-0.2-0.23-0.33-0.31c-0.13-0.08-0.28-0.14-0.44-0.17
								c-0.16-0.04-0.32-0.05-0.49-0.05c-0.15,0-0.3,0.01-0.45,0.04c-0.15,0.02-0.29,0.06-0.42,0.12c-0.13,0.06-0.23,0.14-0.31,0.24
								c-0.08,0.1-0.12,0.23-0.12,0.38c0,0.17,0.06,0.32,0.18,0.43c0.12,0.11,0.28,0.21,0.47,0.28c0.19,0.07,0.4,0.14,0.64,0.19
								c0.24,0.05,0.47,0.1,0.71,0.16c0.25,0.06,0.5,0.12,0.74,0.2c0.24,0.08,0.45,0.18,0.64,0.31c0.18,0.13,0.33,0.29,0.45,0.49
								c0.11,0.2,0.17,0.44,0.17,0.73c0,0.37-0.08,0.68-0.23,0.92c-0.15,0.24-0.35,0.44-0.6,0.59c-0.25,0.15-0.53,0.25-0.84,0.31
								c-0.31,0.06-0.62,0.09-0.93,0.09c-0.34,0-0.66-0.04-0.97-0.11c-0.31-0.07-0.58-0.19-0.81-0.35
								c-0.24-0.16-0.43-0.37-0.57-0.64c-0.14-0.26-0.22-0.58-0.24-0.96h1C4.92,137.14,4.97,137.32,5.06,137.48z"/>
						</g>
						<g>
							<path class="st10" d="M-94.71,115.06h-2.67l2.33-3.1h3.17l2.34,3.1h-2.67l-1.25-1.67L-94.71,115.06z M-95.23,116.23h3.54
								v10.82h-3.54V116.23z"/>
							<rect x="-89.97" y="112.16" class="st10" width="3.54" height="14.88"/>
							<path class="st10" d="M-81.94,122.5c0.06,1.48,0.92,2.46,2.42,2.46c0.85,0,1.69-0.4,2.02-1.19h3.32
								c-0.65,2.5-2.96,3.59-5.38,3.59c-3.52,0-5.92-2.13-5.92-5.75c0-3.31,2.65-5.69,5.83-5.69c3.88,0,5.81,2.92,5.65,6.59H-81.94
								 M-77.54,120.52c-0.06-1.21-0.92-2.21-2.1-2.21c-1.25,0-2.08,0.89-2.29,2.21H-77.54z"/>
							<path class="st10" d="M-65.4,127.04h-1.4v-1.15h-0.03c-0.46,0.93-1.54,1.35-2.71,1.35c-2.61,0-3.91-2.07-3.91-4.47
								c0-2.4,1.28-4.42,3.88-4.42c0.87,0,2.12,0.33,2.74,1.33h0.03v-4.37h1.4V127.04 M-69.34,126c1.87,0,2.6-1.61,2.6-3.2
								c0-1.68-0.76-3.22-2.68-3.22c-1.91,0-2.55,1.63-2.55,3.29C-71.97,124.46-71.15,126-69.34,126"/>
							<path class="st10" d="M-56.82,124.35c-0.38,1.87-1.72,2.89-3.63,2.89c-2.71,0-4-1.87-4.08-4.47c0-2.55,1.68-4.42,4-4.42
								c3,0,3.93,2.81,3.84,4.87h-6.36c-0.05,1.48,0.79,2.79,2.64,2.79c1.15,0,1.95-0.56,2.2-1.66H-56.82 M-58.17,121.98
								c-0.07-1.33-1.06-2.4-2.45-2.4c-1.46,0-2.33,1.1-2.43,2.4H-58.17z"/>
							<polygon class="st10" points="-55.79,112.16 -44.83,112.16 -44.83,115.27 -51.91,115.27 -51.91,118.31 -45.78,118.31 
								-45.78,121.31 -51.91,121.31 -51.91,127.04 -55.79,127.04 							"/>
							<path class="st10" d="M-44.12,116.23h3.44v1.89h0.04c0.52-1.37,1.73-2.11,3.26-2.11c0.27,0,0.56,0.03,0.83,0.09v3.23
								c-0.46-0.13-0.87-0.21-1.36-0.21c-1.75,0-2.67,1.21-2.67,2.57v5.35h-3.54V116.23z"/>
							<path class="st10" d="M-36.55,119.56c0.06-1.41,0.73-2.33,1.68-2.9c0.96-0.54,2.21-0.75,3.44-0.75
								c2.56,0,5.04,0.56,5.04,3.63v4.73c0,0.92,0,1.92,0.42,2.77h-3.57c-0.12-0.34-0.17-0.67-0.21-1.02
								c-0.92,0.96-2.27,1.33-3.56,1.33c-2.06,0-3.69-1.04-3.69-3.27c0-3.52,3.83-3.25,6.29-3.75c0.61-0.12,0.94-0.33,0.94-1
								c0-0.81-0.98-1.12-1.71-1.12c-0.98,0-1.6,0.44-1.77,1.35H-36.55 M-31.97,125.16c1.68,0,2.25-0.96,2.17-3.19
								c-0.5,0.31-1.42,0.38-2.19,0.58c-0.79,0.19-1.46,0.52-1.46,1.38C-33.45,124.81-32.76,125.16-31.97,125.16"/>
							<path class="st10" d="M-25.09,116.23h3.44v1.48h0.05c0.64-1.11,2.1-1.79,3.39-1.79c3.61,0,3.9,2.63,3.9,4.19v6.94h-3.54
								v-5.23c0-1.48,0.17-2.98-1.77-2.98c-1.33,0-1.92,1.12-1.92,2.31v5.9h-3.55V116.23z"/>
							<path class="st10" d="M-5.96,120.19c-0.02-0.92-0.84-1.56-1.73-1.56c-1.98,0-2.29,1.69-2.29,3.19c0,1.4,0.6,2.83,2.1,2.83
								c1.23,0,1.86-0.71,2.02-1.85h3.44c-0.31,2.89-2.56,4.56-5.44,4.56c-3.25,0-5.67-2.23-5.67-5.54c0-3.44,2.19-5.9,5.67-5.9
								c2.69,0,5.09,1.42,5.34,4.27H-5.96z"/>
							<path class="st10" d="M1.34,122.5c0.06,1.48,0.92,2.46,2.42,2.46c0.85,0,1.69-0.4,2.02-1.19h3.32
								c-0.65,2.5-2.96,3.59-5.38,3.59c-3.52,0-5.92-2.13-5.92-5.75c0-3.31,2.65-5.69,5.83-5.69c3.88,0,5.82,2.92,5.65,6.59H1.34
								 M5.73,120.52c-0.06-1.21-0.92-2.21-2.11-2.21c-1.25,0-2.08,0.89-2.29,2.21H5.73z"/>
						</g>
						<g>
							<g>
								<g>
									<path class="st11" d="M40.08,132.81c0,3.34-2.74,6.08-6.08,6.08H19.43c-3.34,0-6.08-2.74-6.08-6.08v-14.57
										c0-3.34,2.74-6.08,6.08-6.08h14.57c3.34,0,6.08,2.74,6.08,6.08V132.81z"/>
								</g>
							</g>
							<g>
								<g>
									<path class="st5" d="M28.34,119c-0.63,1.37-2.02,2.07-3.1,1.57c-1.08-0.5-1.44-2.01-0.8-3.38c0.63-1.37,2.02-2.07,3.1-1.57
										C28.62,116.12,28.98,117.63,28.34,119"/>
									<path class="st5" d="M30.11,128.11c-2.3-3.19-5.11-1.56-7,1c-1.49,2.02-2.76,3.78-4.32,5.92c-0.36,0.5-0.08,0.67,0.42,0.37
										c0.51-0.3,1-0.75,1.47-1.4c0.65-0.88,2.26-3.08,3.27-4.48c0.91-1.25,2.26-1.12,3.2,0.17c1.08,1.49,2.42,3.37,3.6,4.99
										c0.82,1.12,3.3,0.95,4.38,0.87c0.19-0.01,0.25-0.16,0.16-0.28C34.61,134.33,32.25,131.07,30.11,128.11z"/>
								</g>
							</g>
							<path class="st5" d="M33.18,120.31c-3.23,1.63-4.23,1.47-6.95,1.88s-4.76,1.03-7.02,3.44c-0.57,0.6-0.82,1.14,0.07,0.69
								c3.23-1.63,4.23-1.47,6.95-1.88s4.76-1.03,7.02-3.44C33.82,120.39,34.07,119.86,33.18,120.31z"/>
						</g>
					</g>
				</g>
			</g>
		</g>
	</g>
</g>
</svg>
